<svg width="30" height="30" viewBox="0 0 59 59" fill="none" xmlns="http://www.w3.org/2000/svg">
<circle cx="29.5" cy="29.5" r="29.5" fill="#9074B5"/>
<path d="M13.5 26C13 25.5 6 25 5.5 25C5 25 3.00006 29 3 30.5C2.99994 31.9999 3.5 35 6 34.5C8.5 34 12 33 12.5 33C13 33 14 32.9999 14.5 31C15 29 14.5 29.5 14 28.5C13.5 27.4999 14 26.5 13.5 26Z" fill="#614D4D"/>
<path d="M33.5 22C33 21.5 26 21 25.5 21C25 21 23.0001 25 23 26.5C22.9999 27.9999 23.5 31 26 30.5C28.5 30 32 29 32.5 29C33 29 34 28.9999 34.5 27C35 25 34.5 25.5 34 24.5C33.5 23.4999 34 22.5 33.5 22Z" fill="#614D4D"/>
<path d="M54.5 18C54 17.5 47 17 46.5 17C46 17 44.0001 21 44 22.5C43.9999 23.9999 44.5 27 47 26.5C49.5 26 53 25 53.5 25C54 25 55 24.9999 55.5 23C56 21 55.5 21.5 55 20.5C54.5 19.4999 55 18.5 54.5 18Z" fill="#614D4D"/>
<path d="M4.75769 35.8083C5.18062 35.3414 12.1139 33.4582 12.6147 33.3493C13.1155 33.2403 15.7415 35.6678 15.9752 36.7415C16.2088 37.8152 16.1752 40.0716 13.5933 40.2584C11.0115 40.4453 7.35019 40.4921 6.84939 40.6011C6.3486 40.71 5.347 40.9279 4.53475 39.6053C3.7225 38.2826 4.30116 38.5315 4.64622 37.7068C4.99128 36.882 4.33477 36.2752 4.75769 35.8083Z" fill="#614D4D"/>
<path d="M24.7577 31.8083C25.1806 31.3414 32.1139 29.4582 32.6147 29.3493C33.1155 29.2403 35.7415 31.6678 35.9752 32.7415C36.2088 33.8152 36.1752 36.0716 33.5933 36.2584C31.0115 36.4453 27.3502 36.4921 26.8494 36.6011C26.3486 36.71 25.347 36.9279 24.5348 35.6053C23.7225 34.2826 24.3012 34.5315 24.6462 33.7068C24.9913 32.882 24.3348 32.2752 24.7577 31.8083Z" fill="#614D4D"/>
<path d="M45.7577 27.8083C46.1806 27.3414 53.1139 25.4582 53.6147 25.3493C54.1155 25.2403 56.7415 27.6678 56.9752 28.7415C57.2088 29.8152 57.1752 32.0716 54.5933 32.2584C52.0115 32.4453 48.3502 32.4921 47.8494 32.6011C47.3486 32.71 46.347 32.9279 45.5348 31.6053C44.7225 30.2826 45.3012 30.5315 45.6462 29.7068C45.9913 28.882 45.3348 28.2752 45.7577 27.8083Z" fill="#614D4D"/>
<path d="M22.9539 28.1463C22.4067 27.8697 16.482 29.34 16.0683 29.4743C15.6546 29.6087 15.068 33.4338 15.4684 34.6667C15.8688 35.8996 17.0835 38.2309 19.0183 37.1481C20.9531 36.0653 23.5818 34.3028 23.9954 34.1685C24.4091 34.0341 25.2364 33.7653 25.1161 31.9872C24.9958 30.209 24.7156 30.7543 24.035 30.0667C23.3543 29.3792 23.5011 28.4229 22.9539 28.1463Z" fill="#614D4D"/>
<path d="M42.9539 24.1463C42.4067 23.8697 36.482 25.34 36.0683 25.4743C35.6546 25.6087 35.068 29.4338 35.4684 30.6667C35.8688 31.8996 37.0835 34.2309 39.0183 33.1481C40.9531 32.0653 43.5818 30.3028 43.9954 30.1685C44.4091 30.0341 45.2364 29.7653 45.1161 27.9872C44.9958 26.209 44.7156 26.7543 44.035 26.0667C43.3543 25.3792 43.5011 24.4229 42.9539 24.1463Z" fill="#614D4D"/>
<path d="M21.1751 23.0535C20.8335 22.6872 16.3417 24.321 16 24.321C15.6583 24.3209 14 25.2512 14 26.35C14 27.4489 14.3417 29.6466 16.05 29.2803C17.7584 28.914 20.1501 28.1814 20.4918 28.1814C20.8335 28.1814 21.5168 28.1814 21.8585 26.7163C22.2001 25.2512 21.8585 25.6175 21.5168 24.8849C21.1751 24.1523 21.5168 23.4198 21.1751 23.0535Z" fill="#614D4D"/>
<path d="M41.1751 19.0535C40.8335 18.6872 36.3417 20.321 36 20.321C35.6583 20.3209 34 21.2512 34 22.35C34 23.4489 34.3417 25.6466 36.05 25.2803C37.7584 24.914 40.1501 24.1814 40.4918 24.1814C40.8335 24.1814 41.5168 24.1814 41.8585 22.7163C42.2001 21.2512 41.8585 21.6175 41.5168 20.8849C41.1751 20.1523 41.5168 19.4198 41.1751 19.0535Z" fill="#614D4D"/>
</svg>
