<svg width="16" height="17" viewBox="0 0 16 17" fill="none" xmlns="http://www.w3.org/2000/svg">
<g clip-path="url(#clip0_2676_3131)">
<path d="M4.15841 12.2952C4.22074 12.316 4.27837 12.3488 4.32799 12.3919C4.37762 12.435 4.41826 12.4874 4.44761 12.5462C4.47696 12.605 4.49443 12.669 4.49903 12.7345C4.50363 12.8001 4.49526 12.8659 4.47441 12.9282L3.97441 14.4282C3.92889 14.5492 3.83824 14.6479 3.72149 14.7036C3.60474 14.7592 3.47098 14.7674 3.3483 14.7265C3.22561 14.6856 3.12354 14.5988 3.06352 14.4842C3.0035 14.3697 2.9902 14.2363 3.02641 14.1122L3.52641 12.6122C3.56819 12.4863 3.65825 12.3823 3.77677 12.3228C3.89529 12.2634 4.03257 12.2534 4.15841 12.2952ZM10.1584 12.2952C10.2207 12.316 10.2784 12.3488 10.328 12.3919C10.3776 12.435 10.4183 12.4874 10.4476 12.5462C10.477 12.605 10.4944 12.669 10.499 12.7345C10.5036 12.8001 10.4953 12.8659 10.4744 12.9282L9.97441 14.4282C9.92889 14.5492 9.83824 14.6479 9.72149 14.7036C9.60474 14.7592 9.47098 14.7674 9.3483 14.7265C9.22561 14.6856 9.12354 14.5988 9.06352 14.4842C9.0035 14.3697 8.9902 14.2363 9.02641 14.1122L9.52641 12.6122C9.56819 12.4863 9.65825 12.3823 9.77677 12.3228C9.89529 12.2634 10.0326 12.2534 10.1584 12.2952ZM6.65841 13.7952C6.72074 13.816 6.77837 13.8488 6.82799 13.8919C6.87762 13.935 6.91826 13.9874 6.94761 14.0462C6.97696 14.105 6.99443 14.169 6.99903 14.2345C7.00363 14.3001 6.99526 14.3659 6.97441 14.4282L6.47441 15.9282C6.42889 16.0492 6.33824 16.1479 6.22149 16.2036C6.10474 16.2592 5.97098 16.2674 5.8483 16.2265C5.72561 16.1856 5.62354 16.0988 5.56352 15.9842C5.5035 15.8697 5.4902 15.7363 5.52641 15.6122L6.02641 14.1122C6.06819 13.9863 6.15825 13.8823 6.27677 13.8228C6.39529 13.7634 6.53257 13.7534 6.65841 13.7952ZM12.6584 13.7952C12.7207 13.816 12.7784 13.8488 12.828 13.8919C12.8776 13.935 12.9183 13.9874 12.9476 14.0462C12.977 14.105 12.9944 14.169 12.999 14.2345C13.0036 14.3001 12.9953 14.3659 12.9744 14.4282L12.4744 15.9282C12.4556 15.9928 12.4239 16.0529 12.3813 16.1049C12.3387 16.1569 12.286 16.1999 12.2265 16.2311C12.1669 16.2623 12.1016 16.2812 12.0346 16.2866C11.9675 16.292 11.9001 16.2838 11.8363 16.2625C11.7725 16.2413 11.7136 16.2073 11.6632 16.1628C11.6129 16.1182 11.572 16.064 11.543 16.0033C11.5141 15.9425 11.4977 15.8766 11.4949 15.8094C11.492 15.7422 11.5027 15.6751 11.5264 15.6122L12.0264 14.1122C12.0682 13.9863 12.1582 13.8823 12.2768 13.8228C12.3953 13.7634 12.5326 13.7534 12.6584 13.7952ZM13.4054 5.29719C13.1977 4.25035 12.6606 3.2974 11.8726 2.57767C11.0846 1.85793 10.087 1.40917 9.02565 1.297C7.96433 1.18482 6.89495 1.41511 5.97387 1.9542C5.0528 2.49328 4.32833 3.31289 3.90641 4.29319C3.43325 4.23868 2.95394 4.28132 2.49783 4.41849C2.04172 4.55567 1.61841 4.7845 1.25381 5.09096C0.88921 5.39743 0.590998 5.77509 0.377432 6.20081C0.163866 6.62654 0.0394397 7.09138 0.0117705 7.56687C-0.0158987 8.04235 0.0537718 8.51848 0.216516 8.96611C0.379261 9.41373 0.631655 9.82343 0.958246 10.1701C1.28484 10.5168 1.67875 10.7932 2.11587 10.9823C2.55299 11.1715 3.02412 11.2694 3.50041 11.2702H13.0004C13.7615 11.2711 14.4945 10.9826 15.0509 10.4633C15.6073 9.94391 15.9455 9.2325 15.997 8.47314C16.0485 7.71377 15.8094 6.96322 15.3282 6.37352C14.847 5.78382 14.1597 5.39907 13.4054 5.29719ZM8.50041 2.27019C9.48437 2.26998 10.4339 2.63246 11.1674 3.2883C11.9009 3.94414 12.3669 4.84734 12.4764 5.82519C12.49 5.94805 12.5486 6.06151 12.641 6.14369C12.7333 6.22587 12.8528 6.27094 12.9764 6.27019H13.0004C13.5308 6.27019 14.0396 6.4809 14.4146 6.85597C14.7897 7.23105 15.0004 7.73975 15.0004 8.27019C15.0004 8.80062 14.7897 9.30933 14.4146 9.6844C14.0396 10.0595 13.5308 10.2702 13.0004 10.2702H3.50041C3.14648 10.27 2.79663 10.1947 2.47399 10.0492C2.15135 9.90371 1.86327 9.69138 1.62883 9.42624C1.39438 9.1611 1.2189 8.84921 1.11399 8.51119C1.00909 8.17316 0.977154 7.81672 1.0203 7.46543C1.06344 7.11415 1.18068 6.77602 1.36427 6.47343C1.54785 6.17084 1.79359 5.91068 2.08523 5.71015C2.37687 5.50963 2.70776 5.37331 3.05602 5.31023C3.40428 5.24714 3.76196 5.25871 4.10541 5.34419C4.22794 5.37475 4.35749 5.35781 4.46805 5.29678C4.57861 5.23576 4.66198 5.13515 4.70141 5.01519C4.96569 4.21636 5.47503 3.52115 6.15703 3.02837C6.83903 2.53558 7.659 2.27028 8.50041 2.27019Z" fill="#7F56D9" fill-opacity="0.8"/>
</g>
<defs>
<clipPath id="clip0_2676_3131">
<rect width="16" height="16" fill="white" transform="translate(0 0.270264)"/>
</clipPath>
</defs>
</svg>
