<svg width="30" height="30" viewBox="0 0 59 59" fill="none" xmlns="http://www.w3.org/2000/svg">
<circle cx="29.5" cy="29.5" r="29.5" fill="#6B90D7"/>
<path d="M11.0752 21.2988H9.5376V45.9H11.0752V21.2988Z" fill="white"/>
<path d="M37.5214 39.8819C35.8601 40.2581 34.1656 40.4687 32.4627 40.5108L32.4189 40.7291C32.082 42.4333 31.8922 44.1633 31.8516 45.9H40.3159C40.3735 45.2282 40.632 44.5893 41.0578 44.0664V42.6557L40.9232 42.6219C40.1906 42.4412 39.5063 42.1023 38.9186 41.629C38.3309 41.1556 37.854 40.5593 37.5214 39.8819Z" fill="white"/>
<path d="M43.8293 41.6309C43.526 41.0194 43.3682 40.3462 43.368 39.6636V38.6734C43.368 38.5197 43.378 38.3659 43.3865 38.2121H43.3258C42.7493 38.2137 42.1782 38.1009 41.6456 37.8803C41.113 37.6596 40.6294 37.3355 40.2229 36.9267C40.1431 36.8464 40.0481 36.7828 39.9434 36.7395C39.8388 36.6962 39.7265 36.6741 39.6133 36.6746C38.9771 36.674 38.3672 36.421 37.9173 35.9711C37.4675 35.5213 37.2145 34.9114 37.2139 34.2752C37.2145 33.6884 37.4479 33.1257 37.8629 32.7108C38.2778 32.2958 38.8404 32.0625 39.4272 32.0618C40.6565 32.0582 41.8701 31.7867 42.9836 31.2662C42.4159 30.7907 41.7 30.5284 40.9594 30.5243C40.5769 30.5247 40.1959 30.5716 39.8247 30.6642C38.8578 30.9022 37.8751 31.071 36.8841 31.1693L36.7134 31.8535C36.5885 32.3521 36.3006 32.7947 35.8955 33.111C35.4903 33.4273 34.991 33.5992 34.477 33.5994C34.316 33.5996 34.159 33.6505 34.0284 33.7447C33.8978 33.8389 33.8 33.9717 33.749 34.1245C33.5763 34.6434 33.2446 35.0948 32.801 35.4145C32.3573 35.7342 31.8242 35.9061 31.2773 35.9058C30.6093 35.9052 29.9688 35.6396 29.4963 35.1673C29.0239 34.695 28.7581 34.0545 28.7573 33.3865C28.7588 32.4981 28.8933 31.615 29.1563 30.7664C29.0563 30.7472 28.9548 30.7326 28.8549 30.7126L27.9116 30.5243H26.8814C26.5321 30.5239 26.1842 30.4813 25.8451 30.3974C25.1252 30.2141 24.4654 29.8465 23.9306 29.331C23.3957 28.8154 23.0042 28.1695 22.7946 27.4568C22.535 27.6026 22.2872 27.7684 22.0534 27.9527L20.5928 29.1197C20.4649 29.222 20.3721 29.3616 20.3272 29.5191C20.2822 29.6765 20.2874 29.8441 20.342 29.9985C20.3966 30.1528 20.4979 30.2864 20.6318 30.3806C20.7657 30.4748 20.9256 30.5251 21.0894 30.5243H24.1445C24.316 30.5243 24.4826 30.5817 24.6177 30.6873C24.7528 30.7929 24.8488 30.9406 24.8903 31.107L25.9712 35.4307L27.7256 35.7236C28.4434 35.8433 29.0956 36.2138 29.5661 36.7691C30.0365 37.3244 30.2947 38.0286 30.2948 38.7564C30.2931 39.2878 30.1237 39.805 29.811 40.2346C29.4982 40.6641 29.0579 40.9841 28.5528 41.1489C28.6869 41.727 28.7555 42.3183 28.7573 42.9117V44.3624C28.7574 44.5662 28.6767 44.7617 28.5328 44.906C28.2625 45.176 28.0831 45.5234 28.0192 45.9H30.3141C30.3555 44.0621 30.5559 42.2312 30.9129 40.4278L31.079 39.596C31.1144 39.4223 31.2088 39.2662 31.3461 39.1542C31.4834 39.0421 31.6552 38.9809 31.8324 38.9809C33.8118 38.9805 35.7838 38.7381 37.7044 38.259L37.7943 38.2352C37.9826 38.1876 38.1818 38.213 38.3521 38.3063C38.5223 38.3995 38.651 38.5538 38.7123 38.738C38.9054 39.3233 39.2437 39.85 39.6958 40.269C40.1478 40.6879 40.6987 40.9854 41.2969 41.1335L42.0134 41.3127C42.1793 41.3542 42.3266 41.4499 42.432 41.5845C42.5374 41.7191 42.5949 41.8851 42.5954 42.0561V44.3624C42.5956 44.5662 42.5148 44.7617 42.3709 44.906C42.1007 45.176 41.9212 45.5234 41.8574 45.9H44.133V42.9102C44.1322 42.466 44.0283 42.0281 43.8293 41.6309Z" fill="white"/>
<path d="M26.1072 27.526L26.6723 27.2439C27.0787 27.0407 27.4605 26.7915 27.8101 26.5012L27.7124 26.306C27.6579 26.2077 27.5817 26.123 27.4897 26.0584C27.3977 25.9937 27.2923 25.9507 27.1813 25.9327C27.0703 25.9146 26.9567 25.922 26.849 25.9541C26.7412 25.9863 26.6422 26.0424 26.5593 26.1184L26.2264 26.4513C26.1552 26.5234 26.0705 26.5808 25.9771 26.6201C25.8837 26.6595 25.7834 26.6799 25.6821 26.6804C25.1904 26.6872 24.7016 26.757 24.2275 26.8879C24.3348 27.3284 24.5496 27.7355 24.8529 28.0725C25.1561 28.4096 25.5382 28.6661 25.965 28.8191L25.9073 28.7615C25.8214 28.6753 25.7572 28.57 25.72 28.4542C25.6827 28.3384 25.6734 28.2154 25.6929 28.0953C25.7124 27.9753 25.7602 27.8615 25.8322 27.7635C25.9042 27.6655 25.9985 27.5859 26.1072 27.5314V27.526ZM28.7572 38.7564C28.7573 38.3925 28.6282 38.0403 28.393 37.7625C28.1577 37.4848 27.8316 37.2995 27.4726 37.2396L26.5231 37.0813C26.7031 37.4549 26.9188 37.8102 27.1674 38.1422C27.5239 38.6221 27.8251 39.1407 28.0653 39.6882C28.2645 39.6263 28.4389 39.5027 28.5633 39.3352C28.6876 39.1677 28.7555 38.965 28.7572 38.7564Z" fill="white"/>
<path d="M16.339 45.9H20.4182L20.9302 42.8249H15.827L16.339 45.9Z" fill="white"/>
<path d="M30.2948 6L8 16.4071V18.5543L29.9696 8.30175C30.0714 8.25421 30.1824 8.22958 30.2948 8.22958C30.4072 8.22958 30.5182 8.25421 30.62 8.30175L52.5896 18.5543V16.4071L30.2948 6ZM32.2936 33.6379C32.4466 33.1796 32.7397 32.7809 33.1314 32.4981C33.5232 32.2154 33.9938 32.0628 34.477 32.0619C34.6481 32.0615 34.8142 32.0041 34.949 31.8987C35.0838 31.7932 35.1796 31.6459 35.2212 31.4799L35.2727 31.2738C33.7388 31.319 32.2038 31.2331 30.6846 31.0171L30.6738 31.0494C30.4226 31.8029 30.2946 32.5921 30.2948 33.3865C30.2952 33.6469 30.3989 33.8964 30.5831 34.0805C30.7673 34.2645 31.0169 34.368 31.2773 34.3682C31.502 34.3689 31.7212 34.2987 31.9037 34.1675C32.0862 34.0364 32.2226 33.8511 32.2936 33.6379Z" fill="white"/>
<path d="M15.6387 16.6861H44.9509L30.2948 9.84701L15.6387 16.6861Z" fill="white"/>
<path d="M51.052 21.2988H49.5144V45.9H51.052V21.2988Z" fill="white"/>
<path d="M12.3444 18.2237L9.5376 19.5337V19.7613H51.052V19.5337L48.2452 18.2237H12.3444Z" fill="white"/>
<path d="M12.6127 45.9H14.7806L14.161 42.1822C14.1427 42.0721 14.1486 41.9593 14.1783 41.8517C14.2079 41.7441 14.2606 41.6443 14.3328 41.5592C14.4049 41.474 14.4947 41.4056 14.5959 41.3586C14.6972 41.3117 14.8074 41.2873 14.919 41.2873H21.8381C21.9497 41.2873 22.0599 41.3117 22.1612 41.3586C22.2624 41.4056 22.3522 41.474 22.4244 41.5592C22.4965 41.6443 22.5492 41.7441 22.5789 41.8517C22.6085 41.9593 22.6144 42.0721 22.5961 42.1822L21.9765 45.9H26.4777C26.5353 45.2282 26.7938 44.5893 27.2196 44.0664V42.9133C27.2165 41.5262 26.7668 40.1771 25.9373 39.0655C25.2998 38.2178 24.8397 37.2504 24.5842 36.221L23.544 32.0618H21.0893C20.6072 32.062 20.1369 31.9123 19.7436 31.6335C19.3502 31.3548 19.0532 30.9607 18.8936 30.5058C18.7339 30.0508 18.7196 29.5576 18.8525 29.0941C18.9854 28.6307 19.259 28.22 19.6355 27.9189L21.0962 26.7518C22.3122 25.7819 23.8038 25.2214 25.3576 25.1505L25.4729 25.0351C25.726 24.7828 26.0353 24.5941 26.3755 24.4845C26.7156 24.375 27.077 24.3478 27.4297 24.4051C27.7825 24.4625 28.1166 24.6027 28.4045 24.8144C28.6925 25.026 28.9262 25.303 29.0862 25.6225L29.4437 26.3367C29.5157 26.481 29.5405 26.6444 29.5146 26.8036C29.4887 26.9628 29.4133 27.1099 29.2992 27.2239C28.8338 27.6895 28.3087 28.0915 27.7378 28.4193L28.3659 29.0474L29.1554 29.2012C32.5476 29.9483 36.0628 29.9372 39.4502 29.1689C39.9439 29.0465 40.4507 28.9853 40.9594 28.9867C42.1265 28.9906 43.2517 29.4225 44.1216 30.2008C44.9915 30.979 45.5457 32.0493 45.6789 33.2089C46.1671 33.461 46.5867 33.8279 46.9018 34.2779C47.2169 34.728 47.418 35.2478 47.4879 35.7928L47.9707 39.6544L46.4454 39.845L45.9626 35.9827C45.9193 35.6672 45.7948 35.3684 45.6013 35.1155C45.5266 35.5827 45.4134 36.043 45.263 36.4916C45.0243 37.1943 44.9022 37.9313 44.9017 38.6734V39.6644C44.9039 40.1091 45.0091 40.5472 45.2092 40.9444C45.5124 41.5551 45.6703 42.2276 45.6705 42.9094V45.9H47.9768V21.2988H12.6127V45.9Z" fill="white"/>
<path d="M39.4272 33.5994C39.2481 33.5996 39.0763 33.6709 38.9496 33.7976C38.8229 33.9243 38.7517 34.096 38.7515 34.2752C38.7517 34.5037 38.8425 34.7228 39.0041 34.8844C39.1657 35.0459 39.3848 35.1368 39.6133 35.137C39.9285 35.1361 40.2408 35.1977 40.532 35.3183C40.8233 35.439 41.0877 35.6162 41.31 35.8397C41.5741 36.1052 41.8882 36.3157 42.2342 36.459C42.5802 36.6023 42.9512 36.6756 43.3257 36.6746H43.6087C43.6599 36.4588 43.7222 36.2451 43.7955 36.0334C44.0504 35.284 44.1772 34.497 44.1706 33.7055C44.1654 33.3005 44.0827 32.9002 43.9269 32.5262C42.5315 33.2307 40.9904 33.5983 39.4272 33.5994Z" fill="white"/>
</svg>
