<svg width="30" height="30" viewBox="0 0 59 59" fill="none" xmlns="http://www.w3.org/2000/svg">
<circle cx="25.5" cy="25.5" r="25.5" fill="#60C87B"/>
<path d="M29 22C29 21.4696 28.7893 20.9609 28.4142 20.5858C28.0391 20.2107 27.5304 20 27 20V24C27.5304 24 28.0391 23.7893 28.4142 23.4142C28.7893 23.0391 29 22.5304 29 22Z" fill="white"/>
<path fill-rule="evenodd" clip-rule="evenodd" d="M22.5 14C23.5609 14 24.5783 13.5786 25.3284 12.8284C26.0786 12.0783 26.5 11.0609 26.5 10C26.5 8.93913 26.0786 7.92172 25.3284 7.17157C24.5783 6.42143 23.5609 6 22.5 6C21.4391 6 20.4217 6.42143 19.6716 7.17157C18.9214 7.92172 18.5 8.93913 18.5 10C18.5 11.0609 18.9214 12.0783 19.6716 12.8284C20.4217 13.5786 21.4391 14 22.5 14ZM22.5 12C23.0304 12 23.5391 11.7893 23.9142 11.4142C24.2893 11.0391 24.5 10.5304 24.5 10C24.5 9.46957 24.2893 8.96086 23.9142 8.58579C23.5391 8.21071 23.0304 8 22.5 8C21.9696 8 21.4609 8.21071 21.0858 8.58579C20.7107 8.96086 20.5 9.46957 20.5 10C20.5 10.5304 20.7107 11.0391 21.0858 11.4142C21.4609 11.7893 21.9696 12 22.5 12Z" fill="white"/>
<path fill-rule="evenodd" clip-rule="evenodd" d="M13 35C13.0002 34.3794 12.8079 33.774 12.4498 33.2671C12.0916 32.7603 11.5851 32.377 11 32.17V22H16V39C16 39.7956 16.3161 40.5587 16.8787 41.1213C17.4413 41.6839 18.2044 42 19 42C19.7956 42 20.5587 41.6839 21.1213 41.1213C21.6839 40.5587 22 39.7956 22 39V31H23V39C23 39.701 23.24 40.346 23.644 40.857C24.03 41.3466 24.5589 41.7038 25.1573 41.879C25.7556 42.0541 26.3937 42.0385 26.9827 41.8342C27.5718 41.63 28.0826 41.2473 28.4441 40.7394C28.8057 40.2314 29 39.6235 29 39V27.718C30.563 26.998 33 24.91 33 21.571C33 17.364 29.129 16 28.015 16H11V13H9V16.764C8.386 17.314 8 18.112 8 19C7.99938 19.4222 8.08817 19.8397 8.26053 20.2251C8.43289 20.6105 8.6849 20.955 9 21.236V32.171C8.41509 32.3779 7.9087 32.7611 7.55053 33.2677C7.19236 33.7744 7.00003 34.3795 7 35V41H9V37H11V41H13V35ZM27 26.437L28.163 25.901C29.307 25.374 31 23.854 31 21.571C31 20.177 30.395 19.333 29.692 18.782C29.3507 18.5163 28.971 18.3039 28.566 18.152C28.3906 18.0835 28.2087 18.0332 28.023 18.002C28.009 18 28.007 18 28.015 18H11V20H18V39C18 39.2652 18.1054 39.5196 18.2929 39.7071C18.4804 39.8946 18.7348 40 19 40C19.2652 40 19.5196 39.8946 19.7071 39.7071C19.8946 39.5196 20 39.2652 20 39V29H25V39C25 39.2652 25.1054 39.5196 25.2929 39.7071C25.4804 39.8946 25.7348 40 26 40C26.2652 40 26.5196 39.8946 26.7071 39.7071C26.8946 39.5196 27 39.2652 27 39V26.437ZM39.754 17.685C39.5171 17.9554 39.2654 18.2124 39 18.455V20.94C39.395 20.55 39.892 20.335 40.33 20.21C40.775 20.084 41.235 20.03 41.63 20.01C42.1071 19.9873 42.5853 20.0026 43.06 20.056L43.087 20.059L43.096 20.06H43.1C43.557 20.122 43.914 20.488 43.963 20.947V20.96L43.967 20.987C43.9804 21.124 43.989 21.2614 43.993 21.399C44.003 21.663 44.006 22.028 43.977 22.43C43.947 22.828 43.884 23.29 43.75 23.736C43.618 24.173 43.396 24.668 43.002 25.058C42.606 25.45 42.109 25.665 41.671 25.789C41.225 25.916 40.765 25.969 40.37 25.989C39.9237 26.0106 39.4765 25.9989 39.032 25.954L39 25.951V34.94C39.395 34.55 39.892 34.335 40.33 34.21C40.775 34.084 41.235 34.03 41.63 34.01C42.1071 33.9873 42.5853 34.0027 43.06 34.056L43.087 34.059L43.096 34.06H43.1C43.557 34.122 43.914 34.488 43.963 34.947V34.96L43.967 34.987C43.9804 35.124 43.989 35.2614 43.993 35.399C44.003 35.663 44.006 36.028 43.977 36.43C43.947 36.828 43.884 37.29 43.75 37.736C43.618 38.173 43.396 38.668 43.002 39.059C42.606 39.45 42.109 39.665 41.671 39.789C41.225 39.916 40.765 39.969 40.37 39.989C39.9237 40.0106 39.4765 39.9989 39.032 39.954L39 39.951V41C39 41.2652 38.8946 41.5196 38.7071 41.7071C38.5196 41.8946 38.2652 42 38 42C37.7348 42 37.4804 41.8946 37.2929 41.7071C37.1054 41.5196 37 41.2652 37 41V32.95L36.968 32.953C36.5235 32.9979 36.0763 33.0096 35.63 32.988C35.1906 32.9696 34.7546 32.9025 34.33 32.788C33.89 32.664 33.394 32.449 32.999 32.058C32.604 31.667 32.382 31.172 32.25 30.735C32.1274 30.3091 32.0513 29.8712 32.023 29.429C31.9889 28.9485 31.9923 28.466 32.033 27.986L32.036 27.959L32.037 27.95V27.946C32.087 27.487 32.443 27.121 32.9 27.06H32.904L32.913 27.058L32.94 27.055L33.032 27.045C33.4765 27.0001 33.9237 26.9884 34.37 27.01C34.765 27.03 35.225 27.083 35.67 27.21C36.109 27.334 36.605 27.548 37 27.939V18.455C36.7346 18.2121 36.4829 17.9547 36.246 17.684C35.9341 17.3324 35.6614 16.9478 35.433 16.537C35.203 16.11 35 15.58 35 15C35 14.42 35.202 13.889 35.433 13.462C35.667 13.028 35.967 12.636 36.246 12.315C36.5834 11.9301 36.9505 11.5723 37.344 11.245L37.366 11.227L37.373 11.221L37.376 11.219C37.741 10.929 38.259 10.928 38.624 11.218L38.627 11.221L38.634 11.226L38.656 11.245C38.7688 11.3373 38.8789 11.4331 38.986 11.532C39.194 11.722 39.472 11.992 39.754 12.315C40.034 12.635 40.333 13.028 40.567 13.462C40.797 13.889 41 14.42 41 15C41 15.58 40.798 16.111 40.567 16.538C40.3386 16.9488 40.0659 17.3334 39.754 17.685ZM38.246 16.371C38.1663 16.4624 38.0843 16.5518 38 16.639C37.9157 16.5518 37.8337 16.4624 37.754 16.371C37.5391 16.1309 37.3507 15.8684 37.192 15.588C37.048 15.32 37 15.124 37 15C37 14.876 37.048 14.68 37.192 14.412C37.333 14.152 37.533 13.882 37.754 13.629C37.837 13.534 37.92 13.444 38 13.361C38.08 13.444 38.163 13.534 38.246 13.629C38.466 13.883 38.667 14.152 38.808 14.412C38.952 14.68 39 14.876 39 15C39 15.124 38.952 15.32 38.808 15.588C38.667 15.848 38.467 16.118 38.246 16.371ZM40.875 36.135C40.614 36.209 40.472 36.297 40.405 36.363C40.338 36.429 40.245 36.575 40.165 36.842C40.085 37.1273 40.0357 37.4202 40.018 37.716C40.011 37.8105 40.006 37.9052 40.003 38C40.0914 37.9992 40.1797 37.9966 40.268 37.992C40.574 37.976 40.873 37.937 41.125 37.865C41.386 37.791 41.529 37.703 41.595 37.637C41.662 37.571 41.755 37.425 41.835 37.158C41.915 36.8727 41.9643 36.5797 41.982 36.284C41.989 36.1894 41.9941 36.0948 41.997 36C41.9086 36.0007 41.8203 36.0034 41.732 36.008C41.4426 36.0189 41.1552 36.0615 40.875 36.135ZM40.405 22.363C40.472 22.297 40.614 22.209 40.875 22.135C41.128 22.063 41.427 22.024 41.732 22.008C41.822 22.003 41.912 22.001 41.997 22C41.9941 22.0948 41.989 22.1894 41.982 22.284C41.959 22.595 41.912 22.901 41.835 23.158C41.755 23.425 41.662 23.57 41.595 23.637C41.529 23.703 41.386 23.791 41.125 23.865C40.8448 23.9385 40.5574 23.9811 40.268 23.992C40.1797 23.9966 40.0914 23.9992 40.003 24C40.006 23.908 40.011 23.813 40.018 23.716C40.041 23.405 40.088 23.099 40.165 22.842C40.245 22.575 40.338 22.43 40.405 22.363ZM34.003 29C34.006 29.092 34.011 29.187 34.018 29.284C34.041 29.595 34.088 29.901 34.165 30.158C34.245 30.425 34.338 30.57 34.405 30.637C34.472 30.703 34.614 30.791 34.875 30.865C35.128 30.937 35.427 30.976 35.732 30.992C35.822 30.997 35.912 30.999 35.997 31C35.9941 30.9052 35.989 30.8105 35.982 30.716C35.9643 30.4202 35.915 30.1273 35.835 29.842C35.755 29.575 35.662 29.43 35.595 29.363C35.529 29.297 35.386 29.209 35.125 29.135C34.8448 29.0615 34.5574 29.0189 34.268 29.008C34.1797 29.0034 34.0914 29.0008 34.003 29Z" fill="white"/>
</svg>
