<svg width="19" height="20" viewBox="0 0 19 20" fill="none" xmlns="http://www.w3.org/2000/svg">
<path fill-rule="evenodd" clip-rule="evenodd" d="M6.55494 2.55199C6.83604 2.56322 7.07067 2.77017 7.11692 3.04766L9.05892 14.6996L10.7103 8.91965C10.7819 8.66934 11.0081 8.49481 11.2684 8.48916C11.5286 8.4835 11.7622 8.64804 11.8445 8.89501L12.8967 12.0515H14.8438C15.1717 12.0515 15.4375 12.3173 15.4375 12.6453C15.4375 12.9732 15.1717 13.239 14.8438 13.239H12.4688C12.2132 13.239 11.9863 13.0755 11.9055 12.833L11.3249 11.0913L9.47715 17.5584C9.40089 17.8253 9.14984 18.0038 8.87268 17.9881C8.59551 17.9724 8.36622 17.7667 8.32058 17.4929L6.4149 6.05878L4.73227 12.7893C4.66619 13.0536 4.4287 13.239 4.15625 13.239H1.78125C1.45333 13.239 1.1875 12.9732 1.1875 12.6453C1.1875 12.3173 1.45333 12.0515 1.78125 12.0515H3.69266L5.95523 3.00126C6.02346 2.72834 6.27385 2.54077 6.55494 2.55199Z" fill="#724EC3" fill-opacity="0.8"/>
<path fill-rule="evenodd" clip-rule="evenodd" d="M16.0312 12.0515C15.7033 12.0515 15.4375 12.3173 15.4375 12.6453C15.4375 12.9732 15.7033 13.239 16.0312 13.239C16.3592 13.239 16.625 12.9732 16.625 12.6453C16.625 12.3173 16.3592 12.0515 16.0312 12.0515ZM14.25 12.6453C14.25 11.6615 15.0475 10.864 16.0312 10.864C17.015 10.864 17.8125 11.6615 17.8125 12.6453C17.8125 13.629 17.015 14.4265 16.0312 14.4265C15.0475 14.4265 14.25 13.629 14.25 12.6453Z" fill="#724EC3" fill-opacity="0.8"/>
</svg>
