<svg width="30" height="30" viewBox="0 0 59 59" fill="none" xmlns="http://www.w3.org/2000/svg">
<circle cx="29.5" cy="29.5" r="29.5" fill="#745E58"/>
<path d="M52.7444 32.2915L50.6412 27.5115C50.2887 26.7865 49.7467 26.1703 49.0726 25.7281C48.3985 25.286 47.6174 25.0344 46.812 25H13.1138C12.311 25.0372 11.5332 25.29 10.862 25.732C10.1909 26.174 9.6513 26.7887 9.30006 27.5115L7.233 32.3122C7.06839 32.6345 6.98864 32.9934 7.0013 33.3551C7.01396 33.7168 7.1186 34.0693 7.30535 34.3793C7.51452 34.6687 7.79311 34.9008 8.1155 35.0543C8.43788 35.2078 8.79369 35.2778 9.1502 35.2578H50.8324C51.1908 35.2941 51.5522 35.2315 51.8775 35.0766C52.2027 34.9218 52.4792 34.6807 52.6769 34.3796C52.8746 34.0785 52.9859 33.729 52.9987 33.369C53.0116 33.009 52.9254 32.6524 52.7496 32.3381L52.7444 32.2915ZM9.10886 34.1777C8.92371 34.1961 8.7369 34.1679 8.56543 34.0957C8.39395 34.0235 8.24324 33.9096 8.127 33.7643C8.03836 33.6009 7.99192 33.418 7.99192 33.2321C7.99192 33.0462 8.03836 32.8632 8.127 32.6998L10.1941 27.899C10.4682 27.3603 10.8786 26.9027 11.3845 26.5718C11.8904 26.2409 12.4741 26.0482 13.0776 26.0129H43.5667C43.0809 26.4179 42.6968 26.9312 42.4453 27.5115L40.3783 32.3122C40.0114 33.0358 39.5016 33.6775 38.8796 34.1984L9.10886 34.1777ZM51.8091 33.7643C51.6928 33.9096 51.5421 34.0235 51.3707 34.0957C51.1992 34.1679 51.0124 34.1961 50.8272 34.1777H40.3059C40.714 33.7329 41.0505 33.2273 41.3033 32.6791L43.3703 27.8784C43.6445 27.3396 44.0549 26.882 44.5608 26.5511C45.0667 26.2202 45.6504 26.0275 46.2539 25.9922H46.8068C47.4103 26.0275 47.994 26.2202 48.4999 26.5511C49.0058 26.882 49.4162 27.3396 49.6903 27.8784L51.7574 32.6791C51.8585 32.8402 51.9169 33.0244 51.9268 33.2143C51.9368 33.4043 51.898 33.5936 51.8142 33.7643H51.8091Z" fill="#FDFDFD"/>
</svg>
