<svg width="33" height="33" viewBox="0 0 33 33" fill="none" xmlns="http://www.w3.org/2000/svg">
<circle cx="16.5" cy="16.5" r="16.5" fill="#4A90E2"/>
<g stroke="white" stroke-width="1.5" stroke-linecap="round" stroke-linejoin="round">
  <!-- Main irrigation pipe/channel -->
  <rect x="7" y="15" width="19" height="3" rx="1.5" fill="none"/>
  
  <!-- Branch pipes going to crops -->
  <rect x="10.25" y="18" width="1.5" height="8" rx="0.75" fill="none"/>
  <rect x="15.75" y="18" width="1.5" height="8" rx="0.75" fill="none"/>
  <rect x="21.25" y="18" width="1.5" height="8" rx="0.75" fill="none"/>
  
  <!-- Water drops from irrigation -->
  <circle cx="11" cy="20" r="0.5" fill="white"/>
  <circle cx="16.5" cy="20" r="0.5" fill="white"/>
  <circle cx="22" cy="20" r="0.5" fill="white"/>
  
  <circle cx="10.5" cy="22.5" r="0.4" fill="white"/>
  <circle cx="17" cy="22.5" r="0.4" fill="white"/>
  <circle cx="21.5" cy="22.5" r="0.4" fill="white"/>
  
  <!-- Crops/plants being irrigated -->
  <path d="M9 26 Q10 24 11 26 Q12 24 13 26"/>
  <path d="M14.5 26 Q15.5 24 16.5 26 Q17.5 24 18.5 26"/>
  <path d="M20 26 Q21 24 22 26 Q23 24 24 26"/>
  
  <!-- Water source inlet -->
  <circle cx="7" cy="16.5" r="1.5" fill="none"/>
  <path d="M5.5 16.5 L7 16.5"/>
  
  <!-- Flow direction arrows -->
  <path d="M13 16.5 L15 16.5 M14.25 15.75 L15 16.5 L14.25 17.25"/>
  <path d="M18 16.5 L20 16.5 M19.25 15.75 L20 16.5 L19.25 17.25"/>
</g>
</svg>