<svg width="30" height="30" viewBox="0 0 51 51" fill="none" xmlns="http://www.w3.org/2000/svg">
<circle cx="25.5" cy="25.5" r="25.5" fill="#A1DB7D"/>
<path d="M30.7812 18.2969C31.0745 18.2969 31.3125 18.0594 31.3125 17.7656C31.3125 17.4718 31.0745 17.2344 30.7812 17.2344C30.3419 17.2344 29.9844 16.8768 29.9844 16.4375C29.9844 15.9982 30.3419 15.6406 30.7812 15.6406C31.2206 15.6406 31.5781 15.9982 31.5781 16.4375C31.5781 16.7313 31.8161 16.9688 32.1094 16.9688C32.4026 16.9688 32.6406 16.7313 32.6406 16.4375C32.6406 15.4122 31.8066 14.5781 30.7812 14.5781C29.7559 14.5781 28.9219 15.4122 28.9219 16.4375C28.9219 17.4628 29.7559 18.2969 30.7812 18.2969Z" fill="white"/>
<path d="M21.4493 28.8172L28.8496 34.9107C28.9447 34.9882 29.0642 35.0318 29.1875 35.0318H33.4375C33.7329 35.0318 33.9693 34.7922 33.9687 34.4968C33.9677 33.3536 33.4311 31.1807 31.492 30.4354L33.446 25.5506L32.9902 20.0574C34.1116 19.378 34.8453 18.239 34.9962 16.9395L42.5017 16.4704C42.7944 16.4524 43.017 16.2 42.9989 15.9068C42.9809 15.6135 42.7349 15.3968 42.4353 15.4095L34.9893 15.8749C34.7948 14.4172 33.8609 13.1932 32.5758 12.5907L39.1702 10.0264C39.4438 9.92012 39.5793 9.61253 39.473 9.33894C39.3673 9.06587 39.0608 8.92934 38.7856 9.03666L30.6675 12.1939C28.4342 12.2534 26.629 14.0416 26.5403 16.2675L20.8644 25.0039C20.058 26.2396 20.3098 27.879 21.4498 28.8178L21.4493 28.8172ZM30.7812 13.25C32.5391 13.25 33.9687 14.6796 33.9687 16.4375C33.9687 17.6594 33.2903 18.7527 32.1933 19.294C31.7656 19.5108 31.2774 19.625 30.7812 19.625C29.0233 19.625 27.5937 18.1954 27.5937 16.4375C27.5937 14.6796 29.0233 13.25 30.7812 13.25ZM21.7542 25.583L26.7777 17.8506C27.3621 19.5007 28.9335 20.6875 30.7812 20.6875C31.1845 20.6875 31.5818 20.6237 31.9622 20.5138L32.3665 25.3875L30.2877 30.5836C30.2293 30.7297 30.2388 30.8949 30.3137 31.0341C30.3892 31.1728 30.522 31.2705 30.6766 31.3019C32.2889 31.6243 32.7352 33.1443 32.8584 33.9688H29.3777L22.1245 27.9964C21.4031 27.403 21.2437 26.3655 21.7542 25.583Z" fill="white"/>
<path d="M35.8281 28.125C36.2675 28.125 36.625 28.4825 36.625 28.9219C36.625 29.2157 36.863 29.4531 37.1562 29.4531C37.4495 29.4531 37.6875 29.2157 37.6875 28.9219C37.6875 27.8966 36.8534 27.0625 35.8281 27.0625C34.8028 27.0625 33.9688 27.8966 33.9688 28.9219C33.9688 29.9472 34.8028 30.7812 35.8281 30.7812C36.1214 30.7812 36.3594 30.5438 36.3594 30.25C36.3594 29.9562 36.1214 29.7188 35.8281 29.7188C35.3888 29.7188 35.0312 29.3612 35.0312 28.9219C35.0312 28.4825 35.3888 28.125 35.8281 28.125Z" fill="white"/>
<path d="M14.5781 35.0312C13.5528 35.0312 12.7188 35.8653 12.7188 36.8906C12.7188 37.1844 12.9568 37.4219 13.25 37.4219C13.5432 37.4219 13.7812 37.1844 13.7812 36.8906C13.7812 36.4513 14.1388 36.0938 14.5781 36.0938C15.0175 36.0938 15.375 36.4513 15.375 36.8906C15.375 37.33 15.0175 37.6875 14.5781 37.6875C14.2849 37.6875 14.0469 37.925 14.0469 38.2188C14.0469 38.5125 14.2849 38.75 14.5781 38.75C15.6034 38.75 16.4375 37.9159 16.4375 36.8906C16.4375 35.8653 15.6034 35.0312 14.5781 35.0312Z" fill="white"/>
<path d="M40.1881 34.033C40.2917 34.1366 40.4282 34.1886 40.5642 34.1886C40.7002 34.1886 40.8362 34.1366 40.9398 34.033C41.24 33.7334 41.4052 33.3328 41.4052 32.9062C41.4052 32.4796 41.2394 32.0791 40.9398 31.7794C40.339 31.1786 39.2866 31.1786 38.6857 31.7794C38.4785 31.9871 38.4785 32.3234 38.6857 32.5306C38.8934 32.7383 39.2297 32.7383 39.4374 32.5306C39.6361 32.3314 39.9894 32.3314 40.1886 32.5306C40.2885 32.6305 40.3432 32.7633 40.3432 32.9062C40.3432 33.0491 40.2885 33.1825 40.1886 33.2818C39.9809 33.489 39.9804 33.8253 40.1881 34.033Z" fill="white"/>
<path d="M18.3426 21.4386C18.4786 21.4386 18.6146 21.3866 18.7187 21.283C18.9259 21.0753 18.9259 20.739 18.7187 20.5318C18.6188 20.4319 18.5641 20.2991 18.5641 20.1562C18.5641 20.0133 18.6188 19.88 18.7187 19.7806C18.9174 19.5814 19.2706 19.5814 19.4693 19.7806C19.6771 19.9883 20.0133 19.9883 20.2211 19.7806C20.4288 19.5734 20.4288 19.2371 20.2211 19.0294C19.6202 18.4286 18.5673 18.4286 17.967 19.0294C17.6668 19.3291 17.5016 19.7296 17.5016 20.1562C17.5016 20.5828 17.6673 20.9834 17.967 21.283C18.0706 21.3866 18.2066 21.4386 18.3426 21.4386Z" fill="white"/>
<path d="M36.1123 13.3897C36.1771 13.6261 36.3907 13.7812 36.6244 13.7812C36.6706 13.7812 42.6084 12.1689 42.6084 12.1689C42.8916 12.0913 43.0584 11.7996 42.9814 11.5165C42.9038 11.2328 42.6116 11.0639 42.329 11.1436L36.4852 12.7373C36.2021 12.8149 36.0353 13.1065 36.1123 13.3897Z" fill="white"/>
<path d="M42.4688 37.6875H39.7456C39.5092 36.7716 38.6762 36.0938 37.6875 36.0938C36.6988 36.0938 35.8664 36.7716 35.6294 37.6875H25.8943C25.4252 36.0029 23.9616 34.738 22.2473 34.5303C22.0018 32.7161 20.4431 31.3125 18.562 31.3125H16.9523L16.7132 23.5191C16.6569 21.6331 15.1354 20.1562 13.2495 20.1562H9.53125C9.238 20.1562 9 20.3937 9 20.6875V42.4688C9 42.7625 9.238 43 9.53125 43H42.4688C42.762 43 43 42.7625 43 42.4688V38.2188C43 37.925 42.762 37.6875 42.4688 37.6875ZM41.9375 41.9375H10.0625V21.2188H13.25C14.5574 21.2188 15.6119 22.2435 15.6518 23.5515L15.9068 31.8602C15.9158 32.1471 16.1506 32.3755 16.438 32.3755H18.563C20.0277 32.3755 21.2193 33.5671 21.2193 35.0318C21.2193 35.3256 21.4573 35.563 21.7505 35.563C23.3113 35.563 24.6846 36.7424 24.9455 38.3064C24.988 38.5625 25.21 38.7505 25.4693 38.7505H36.0943C36.3875 38.7505 36.6255 38.5131 36.6255 38.2193C36.6255 37.6333 37.1021 37.1568 37.688 37.1568C38.274 37.1568 38.7505 37.6333 38.7505 38.2193C38.7505 38.5131 38.9885 38.7505 39.2818 38.7505H41.938V41.938L41.9375 41.9375Z" fill="white"/>
<path d="M25.1335 25.1075C25.303 25.1075 25.4698 25.0267 25.5729 24.8753L27.5013 22.0491C27.6665 21.8068 27.6044 21.4764 27.3616 21.3106C27.1193 21.1454 26.7889 21.2076 26.6232 21.4504L24.6947 24.2766C24.5295 24.5189 24.5917 24.8493 24.8344 25.0151C24.9258 25.0772 25.031 25.1075 25.1335 25.1075Z" fill="white"/>
<path d="M42.2031 30.25C42.6432 30.25 43 29.8932 43 29.4531C43 29.013 42.6432 28.6562 42.2031 28.6562C41.763 28.6562 41.4062 29.013 41.4062 29.4531C41.4062 29.8932 41.763 30.25 42.2031 30.25Z" fill="white"/>
<path d="M20.4219 38.75C20.862 38.75 21.2188 38.3932 21.2188 37.9531C21.2188 37.513 20.862 37.1562 20.4219 37.1562C19.9818 37.1562 19.625 37.513 19.625 37.9531C19.625 38.3932 19.9818 38.75 20.4219 38.75Z" fill="white"/>
<path d="M12.9844 31.3125C13.4245 31.3125 13.7812 30.9557 13.7812 30.5156C13.7812 30.0755 13.4245 29.7188 12.9844 29.7188C12.5443 29.7188 12.1875 30.0755 12.1875 30.5156C12.1875 30.9557 12.5443 31.3125 12.9844 31.3125Z" fill="white"/>
<path d="M15.6406 18.0312C16.0807 18.0312 16.4375 17.6745 16.4375 17.2344C16.4375 16.7943 16.0807 16.4375 15.6406 16.4375C15.2005 16.4375 14.8438 16.7943 14.8438 17.2344C14.8438 17.6745 15.2005 18.0312 15.6406 18.0312Z" fill="white"/>
</svg>
