<svg width="19" height="17" viewBox="0 0 19 17" fill="none" xmlns="http://www.w3.org/2000/svg">
<path d="M18.1969 10.8735L16.0871 6.39021V6.30907C16.2697 6.2685 16.4117 6.1062 16.4117 5.90334C16.4117 5.70048 16.2697 5.53819 16.0871 5.49761V5.33532C16.4117 5.29475 16.6754 5.01074 16.6754 4.66587C16.6754 4.54415 16.6348 4.42243 16.574 4.321C16.4726 4.11814 16.2494 3.97613 16.006 3.97613C15.7625 3.97613 15.5597 4.11814 15.4379 4.30072C15.3974 4.38186 15.3568 4.46301 15.3365 4.54415C14.7888 4.40215 14.3019 4.11814 13.7745 3.79356C12.9021 3.26611 11.8473 2.61695 10.1026 2.47494C10.0823 2.43437 10.0621 2.41408 10.0418 2.37351C10.1229 2.21122 10.1635 1.98807 10.1635 1.68377C10.1635 1.17661 9.87947 0.365155 9.65632 0.101432C9.59547 0.0405728 9.51432 0 9.43317 0C9.35203 0 9.27088 0.0405728 9.21002 0.101432C8.98687 0.365155 8.70286 1.17661 8.70286 1.68377C8.70286 1.96778 8.74344 2.19093 8.82458 2.37351C8.8043 2.39379 8.78401 2.43437 8.76372 2.47494C6.69451 2.59666 5.68019 3.2864 4.82816 3.85442C4.38186 4.15871 3.99642 4.42243 3.52983 4.54415C3.50955 4.46301 3.48926 4.38186 3.4284 4.30072C3.30668 4.09785 3.10382 3.97613 2.86038 3.97613C2.61695 3.97613 2.39379 4.11814 2.29236 4.321C2.2315 4.42243 2.19093 4.54415 2.19093 4.66587C2.19093 5.01074 2.43437 5.27446 2.75895 5.33532V5.49761C2.57637 5.53819 2.43437 5.70048 2.43437 5.90334C2.43437 6.1062 2.57637 6.2685 2.75895 6.30907V6.39021L0.689737 10.8735H0C0 11.685 1.29833 12.3341 2.90095 12.3341C4.50358 12.3341 5.80191 11.685 5.80191 10.8735H5.05131L2.96181 6.39021V6.30907C3.14439 6.2685 3.2864 6.1062 3.2864 5.90334C3.2864 5.70048 3.14439 5.53819 2.96181 5.49761V5.33532C3.04296 5.33532 3.12411 5.31504 3.18496 5.27446C4.03699 5.19332 4.60501 4.80788 5.2136 4.40215C6.02506 3.85442 6.91766 3.24582 8.8043 3.1241C8.82458 3.18496 8.86515 3.22554 8.90573 3.26611C8.78401 3.52983 8.72315 3.85442 8.72315 4.23986C8.72315 4.78759 8.86515 5.25418 9.08831 5.49761V11.6038C8.86515 11.7255 8.72315 11.969 8.72315 12.2327C8.72315 12.4153 8.78401 12.5979 8.90573 12.7196C8.78401 12.9833 8.72315 13.3079 8.72315 13.6933C8.72315 13.8353 8.74344 13.9773 8.76372 14.1193C7.48568 14.2816 6.55251 14.8496 6.55251 15.5394C6.14678 15.5394 5.8222 15.864 5.8222 16.2697H5.63962C5.33532 16.2697 5.09189 16.432 5.09189 16.6348C5.09189 16.8377 5.33532 17 5.63962 17H6.55251H9.45346H12.3747H13.2876C13.5919 17 13.8353 16.8377 13.8353 16.6348C13.8353 16.432 13.5919 16.2697 13.2876 16.2697H13.105C13.105 15.864 12.7804 15.5394 12.3747 15.5394C12.3747 14.8496 11.4212 14.2816 10.1635 14.1193C10.1838 13.9773 10.2041 13.8353 10.2041 13.6933C10.2041 13.3282 10.1432 12.9833 10.0215 12.7196C10.1432 12.5979 10.2041 12.4153 10.2041 12.2327C10.2041 11.969 10.0621 11.7255 9.8389 11.6038V5.5179C10.0621 5.27446 10.2041 4.78759 10.2041 4.26014C10.2041 3.89499 10.1432 3.55012 10.0215 3.2864C10.0621 3.24582 10.0823 3.20525 10.1229 3.14439C11.685 3.26611 12.6384 3.85442 13.4702 4.36158C14.1802 4.78759 14.8496 5.2136 15.7422 5.27446C15.8031 5.31504 15.8842 5.33532 15.9451 5.33532V5.49761C15.7625 5.53819 15.6205 5.70048 15.6205 5.90334C15.6205 6.1062 15.7625 6.2685 15.9451 6.30907V6.39021L13.815 10.8735H13.0847C13.0847 11.685 14.3831 12.3341 15.9857 12.3341C17.5883 12.3341 18.8866 11.685 18.8866 10.8735H18.1969ZM2.79952 6.75537V10.8735H0.872315L2.79952 6.75537ZM4.88902 10.8735H2.96181V6.75537L4.88902 10.8735ZM3.1241 5.90334C3.1241 6.00477 3.06325 6.10621 2.96181 6.12649V6.08592H2.79952V6.12649C2.69809 6.08592 2.63723 6.00477 2.63723 5.90334C2.63723 5.76134 2.73866 5.6599 2.88067 5.6599C3.02267 5.6599 3.1241 5.78162 3.1241 5.90334ZM18.0143 10.8735H16.0871V6.75537L18.0143 10.8735ZM15.7625 5.90334C15.7625 5.76134 15.864 5.6599 16.006 5.6599C16.148 5.6599 16.2494 5.76134 16.2494 5.90334C16.2494 6.00477 16.1885 6.10621 16.0871 6.12649V6.08592H15.9248V6.12649C15.8234 6.10621 15.7625 6.00477 15.7625 5.90334ZM15.9248 6.75537V10.8735H13.9976L15.9248 6.75537Z" fill="#7F56D9" fill-opacity="0.9"/>
</svg>
